<svg xmlns="http://www.w3.org/2000/svg" width="512" height="512" viewBox="0 0 512 512">
  <rect width="512" height="512" fill="#ffffff"/>
  <rect x="32" y="32" width="128" height="128" fill="#000000"/>
  <rect x="48" y="48" width="96" height="96" fill="#ffffff"/>
  <rect x="64" y="64" width="64" height="64" fill="#000000"/>
  <rect x="352" y="32" width="128" height="128" fill="#000000"/>
  <rect x="368" y="48" width="96" height="96" fill="#ffffff"/>
  <rect x="384" y="64" width="64" height="64" fill="#000000"/>
  <rect x="32" y="352" width="128" height="128" fill="#000000"/>
  <rect x="48" y="368" width="96" height="96" fill="#ffffff"/>
  <rect x="64" y="384" width="64" height="64" fill="#000000"/>
  <rect x="208" y="32" width="16" height="16" fill="#000000"/>
  <rect x="240" y="32" width="16" height="16" fill="#000000"/>
  <rect x="272" y="32" width="16" height="16" fill="#000000"/>
  <rect x="208" y="64" width="16" height="16" fill="#000000"/>
  <rect x="256" y="64" width="16" height="16" fill="#000000"/>
  <rect x="304" y="64" width="16" height="16" fill="#000000"/>
  <rect x="192" y="96" width="16" height="16" fill="#000000"/>
  <rect x="224" y="96" width="16" height="16" fill="#000000"/>
  <rect x="288" y="96" width="16" height="16" fill="#000000"/>
  <rect x="320" y="96" width="16" height="16" fill="#000000"/>
  <rect x="192" y="160" width="16" height="16" fill="#000000"/>
  <rect x="224" y="160" width="16" height="16" fill="#000000"/>
  <rect x="288" y="160" width="16" height="16" fill="#000000"/>
  <rect x="320" y="160" width="16" height="16" fill="#000000"/>
  <rect x="176" y="208" width="16" height="16" fill="#000000"/>
  <rect x="208" y="208" width="16" height="16" fill="#000000"/>
  <rect x="272" y="208" width="16" height="16" fill="#000000"/>
  <rect x="304" y="208" width="16" height="16" fill="#000000"/>
  <rect x="336" y="208" width="16" height="16" fill="#000000"/>
  <rect x="176" y="240" width="16" height="16" fill="#000000"/>
  <rect x="240" y="240" width="16" height="16" fill="#000000"/>
  <rect x="272" y="240" width="16" height="16" fill="#000000"/>
  <rect x="336" y="240" width="16" height="16" fill="#000000"/>
  <rect x="384" y="240" width="16" height="16" fill="#000000"/>
  <rect x="176" y="272" width="16" height="16" fill="#000000"/>
  <rect x="208" y="272" width="16" height="16" fill="#000000"/>
  <rect x="224" y="272" width="16" height="16" fill="#000000"/>
  <rect x="304" y="272" width="16" height="16" fill="#000000"/>
  <rect x="336" y="272" width="16" height="16" fill="#000000"/>
  <rect x="384" y="272" width="16" height="16" fill="#000000"/>
  <rect x="208" y="304" width="16" height="16" fill="#000000"/>
  <rect x="256" y="304" width="16" height="16" fill="#000000"/>
  <rect x="288" y="304" width="16" height="16" fill="#000000"/>
  <rect x="336" y="304" width="16" height="16" fill="#000000"/>
  <rect x="368" y="304" width="16" height="16" fill="#000000"/>
  <rect x="176" y="336" width="16" height="16" fill="#000000"/>
  <rect x="224" y="336" width="16" height="16" fill="#000000"/>
  <rect x="256" y="336" width="16" height="16" fill="#000000"/>
  <rect x="304" y="336" width="16" height="16" fill="#000000"/>
  <rect x="352" y="336" width="16" height="16" fill="#000000"/>
  <rect x="384" y="336" width="16" height="16" fill="#000000"/>
  <rect x="192" y="384" width="16" height="16" fill="#000000"/>
  <rect x="240" y="384" width="16" height="16" fill="#000000"/>
  <rect x="272" y="384" width="16" height="16" fill="#000000"/>
  <rect x="320" y="384" width="16" height="16" fill="#000000"/>
  <rect x="368" y="384" width="16" height="16" fill="#000000"/>
  <rect x="192" y="416" width="16" height="16" fill="#000000"/>
  <rect x="224" y="416" width="16" height="16" fill="#000000"/>
  <rect x="288" y="416" width="16" height="16" fill="#000000"/>
  <rect x="320" y="416" width="16" height="16" fill="#000000"/>
  <rect x="352" y="416" width="16" height="16" fill="#000000"/>
  <rect x="400" y="416" width="16" height="16" fill="#000000"/>
  <rect x="176" y="448" width="16" height="16" fill="#000000"/>
  <rect x="224" y="448" width="16" height="16" fill="#000000"/>
  <rect x="256" y="448" width="16" height="16" fill="#000000"/>
  <rect x="288" y="448" width="16" height="16" fill="#000000"/>
  <rect x="352" y="448" width="16" height="16" fill="#000000"/>
  <rect x="400" y="448" width="16" height="16" fill="#000000"/>
</svg>
